<svg width="53" height="52" viewBox="0 0 53 52" fill="none" xmlns="http://www.w3.org/2000/svg">
<g clip-path="url(#clip0)" filter="url(#filter0_d)">
<path d="M47.8581 43.7521C47.6233 43.9838 47.2762 44.0611 46.9657 43.9499L11.2714 31.2228C10.0313 31.9811 8.4584 32.1587 7.01577 31.5613C4.62113 30.5694 3.4798 27.8141 4.47168 25.4193C6.81081 19.7725 10.1881 14.718 14.5099 10.3961C18.8318 6.07421 23.8863 2.69688 29.5332 0.357838C30.1196 0.114979 30.7274 -3.8147e-06 31.3259 -3.8147e-06C33.1714 8.01086e-05 34.9262 1.09364 35.6751 2.90201C36.179 4.11871 36.1314 5.42823 35.6494 6.55263L48.0674 42.8624C48.1742 43.1745 48.0929 43.5203 47.8581 43.7521ZM16.676 31.3252L20.459 32.6739C20.9031 32.2007 21.1196 31.5493 21.0328 30.8905C20.9564 30.3104 20.6587 29.7947 20.1945 29.4385C19.7304 29.0823 19.1556 28.9284 18.5751 29.0046C17.9951 29.081 17.4795 29.3786 17.1233 29.8429C16.7951 30.2706 16.639 30.7924 16.676 31.3252ZM34.0872 3.55986C33.4579 2.04066 31.7098 1.31664 30.1909 1.94605C19.1875 6.50373 10.6176 15.0737 6.05972 26.0772C5.7549 26.813 5.7549 27.6235 6.05972 28.3595C6.36454 29.0954 6.93766 29.6685 7.67354 29.9733C8.40942 30.2781 9.21998 30.2781 9.95586 29.9733C10.6917 29.6685 11.2649 29.0954 11.5697 28.3595C13.5205 23.6495 16.3376 19.4336 19.9425 15.8287C23.5474 12.2238 27.7633 9.40687 32.4732 7.45592C33.9924 6.82677 34.7165 5.07889 34.0872 3.55986ZM41.7221 29.6202C41.6443 29.6221 41.5664 29.6265 41.4888 29.6367C40.9088 29.7131 40.3931 30.0108 40.037 30.4749C39.6808 30.9391 39.5267 31.5142 39.603 32.0942C39.7607 33.2917 40.8629 34.1375 42.0608 33.98C42.4303 33.9314 42.7772 33.7881 43.0731 33.57L41.7221 29.6202ZM43.6443 35.241C43.2256 35.469 42.7656 35.6208 42.2851 35.6841C40.1477 35.9662 38.1803 34.4557 37.899 32.3185C37.7627 31.2833 38.0377 30.257 38.6734 29.4285C39.2857 28.6306 40.1622 28.1093 41.151 27.9503L39.4429 22.9557L37.4786 24.4631C37.1021 24.7518 36.5625 24.681 36.2737 24.3044C35.9847 23.9279 36.0558 23.3884 36.4323 23.0995L38.8562 21.2397L34.4137 8.24981C34.0411 8.57379 33.612 8.84484 33.1314 9.04396C24.0237 12.8165 16.9304 19.9098 13.1581 29.0173C13.0269 29.334 12.864 29.6281 12.676 29.899L14.9774 30.7195C15.0577 30.0262 15.3239 29.3648 15.7598 28.7967C16.3954 27.9682 17.3157 27.437 18.3509 27.3007C18.5243 27.2779 18.6972 27.2665 18.8693 27.2665C19.7242 27.2665 20.5512 27.5458 21.2409 28.075C22.0694 28.7107 22.6006 29.6308 22.737 30.6662C22.8593 31.5956 22.6424 32.5162 22.1554 33.2788L32.838 37.0877L33.2428 36.1103C33.38 35.7793 33.6999 35.5795 34.0371 35.5795C34.1467 35.5795 34.2581 35.6007 34.3657 35.6452C34.8041 35.8268 35.0124 36.3296 34.8308 36.768L34.459 37.6656L45.8645 41.7324L43.6443 35.241Z" fill="#363853"/>
<path d="M13.394 20.9451C13.3914 20.9492 13.3843 20.9601 13.3815 20.964C13.1184 21.3587 12.5859 21.4647 12.191 21.2018C11.7968 20.9394 11.6899 20.4066 11.9508 20.0118C12.1153 19.7589 12.3907 19.621 12.672 19.621C12.8311 19.621 12.9921 19.6652 13.1358 19.7576C13.535 20.0142 13.6506 20.5459 13.394 20.9451Z" fill="#363853"/>
<path d="M12.0871 23.08C11.2496 24.5483 10.4968 26.0851 9.8496 27.6473C9.66801 28.0859 9.16502 28.2939 8.72683 28.1123C8.28829 27.9307 8.08015 27.428 8.26182 26.9896C8.93643 25.361 9.72121 23.7591 10.5942 22.2285C10.7527 21.9506 11.0428 21.7947 11.3414 21.7947C11.4858 21.7947 11.6321 21.8312 11.7663 21.9077C12.1786 22.1429 12.3223 22.6678 12.0871 23.08Z" fill="#363853"/>
<path d="M31.0054 33.0012C30.8351 33.0237 30.6621 33.035 30.4913 33.035C28.539 33.035 26.8744 31.5737 26.6193 29.6358C26.338 27.4987 27.8476 25.5311 29.9847 25.2497C30.1551 25.2272 30.3281 25.2159 30.4989 25.2159C32.4511 25.2159 34.1157 26.6772 34.3708 28.6153C34.6521 30.7523 33.1424 32.7198 31.0054 33.0012ZM32.6668 28.8396C32.5238 27.7536 31.5919 26.9347 30.4989 26.9347C30.4028 26.9347 30.3053 26.941 30.2091 26.9538C29.0116 27.1115 28.1658 28.2139 28.3234 29.4115C28.4664 30.4974 29.3983 31.3162 30.4913 31.3162C30.5873 31.3162 30.6849 31.3098 30.781 31.2971C31.9785 31.1393 32.8245 30.0369 32.6668 28.8396Z" fill="#363853"/>
<path d="M30.7818 22.3116C30.6113 22.3341 30.4384 22.3455 30.2676 22.3455C28.3154 22.3455 26.6507 20.8841 26.3957 18.9461C26.2593 17.9108 26.5343 16.8846 27.17 16.056C27.8056 15.2276 28.7258 14.6963 29.7611 14.56C29.9313 14.5375 30.1042 14.5263 30.275 14.5263C32.2272 14.5263 33.8919 15.9876 34.1471 17.9257C34.4285 20.0626 32.9188 22.0301 30.7818 22.3116ZM32.4432 18.1499C32.3002 17.0639 31.3681 16.245 30.2752 16.245C30.1792 16.245 30.0816 16.2515 29.9855 16.2641C29.4055 16.3406 28.8898 16.6383 28.5336 17.1024C28.1774 17.5666 28.0233 18.1417 28.0997 18.7218C28.2427 19.8077 29.1747 20.6266 30.2676 20.6266C30.3637 20.6266 30.4612 20.6203 30.5574 20.6075C31.7547 20.4498 32.6007 19.3474 32.4432 18.1499Z" fill="#363853"/>
<path d="M25.1138 25.8718L22.4724 26.2196C22.0021 26.2821 21.5701 25.9504 21.5082 25.4799C21.4461 25.0093 21.7774 24.5776 22.2479 24.5157L24.8893 24.1679C24.9274 24.1628 24.9652 24.1604 25.0026 24.1604C25.4272 24.1604 25.7965 24.4752 25.8534 24.9076C25.9156 25.3781 25.5844 25.8099 25.1138 25.8718Z" fill="#363853"/>
<path d="M23.7743 19.5299L23.5411 21.3022C23.4792 21.7728 23.0476 22.1042 22.577 22.0421C22.1064 21.9801 21.7752 21.5485 21.8371 21.0779L22.0705 19.3056C22.1274 18.8731 22.4966 18.5583 22.9213 18.5583C22.9587 18.5583 22.9965 18.5607 23.0345 18.5657C23.5051 18.6277 23.8363 19.0593 23.7743 19.5299Z" fill="#363853"/>
</g>
<defs>
<filter id="filter0_d" x="0.112793" y="0" width="52" height="52" filterUnits="userSpaceOnUse" color-interpolation-filters="sRGB">
<feFlood flood-opacity="0" result="BackgroundImageFix"/>
<feColorMatrix in="SourceAlpha" type="matrix" values="0 0 0 0 0 0 0 0 0 0 0 0 0 0 0 0 0 0 127 0" result="hardAlpha"/>
<feOffset dy="4"/>
<feGaussianBlur stdDeviation="2"/>
<feComposite in2="hardAlpha" operator="out"/>
<feColorMatrix type="matrix" values="0 0 0 0 0 0 0 0 0 0 0 0 0 0 0 0 0 0 0.25 0"/>
<feBlend mode="normal" in2="BackgroundImageFix" result="effect1_dropShadow"/>
<feBlend mode="normal" in="SourceGraphic" in2="effect1_dropShadow" result="shape"/>
</filter>
<clipPath id="clip0">
<rect width="44" height="44" fill="white" transform="matrix(1 0 0 -1 4.11279 44)"/>
</clipPath>
</defs>
</svg>
