<svg width="216" height="72" viewBox="0 0 216 72" fill="none" xmlns="http://www.w3.org/2000/svg">
<g filter="url(#filter0_d)">
<rect x="1" y="1" width="214" height="70" rx="5" fill="white"/>
</g>
<path d="M93.78 43.2C91.9933 43.2 90.6333 42.72 89.7 41.76C88.78 40.8 88.2867 39.4733 88.22 37.78C88.2067 37.42 88.2 36.8333 88.2 36.02C88.2 35.1933 88.2067 34.5933 88.22 34.22C88.2867 32.54 88.7867 31.22 89.72 30.26C90.6533 29.2867 92.0067 28.8 93.78 28.8C94.9667 28.8 95.9733 29.0133 96.8 29.44C97.6267 29.8533 98.2533 30.4 98.68 31.08C99.1067 31.76 99.34 32.4867 99.38 33.26V33.3C99.38 33.4067 99.3333 33.5 99.24 33.58C99.16 33.6467 99.0667 33.68 98.96 33.68H97.86C97.5933 33.68 97.4267 33.5267 97.36 33.22C97.1333 32.22 96.7267 31.52 96.14 31.12C95.5533 30.7067 94.7667 30.5 93.78 30.5C91.4867 30.5 90.3 31.7733 90.22 34.32C90.2067 34.68 90.2 35.2333 90.2 35.98C90.2 36.7267 90.2067 37.2933 90.22 37.68C90.3 40.2267 91.4867 41.5 93.78 41.5C94.7667 41.5 95.5533 41.3 96.14 40.9C96.74 40.4867 97.1467 39.78 97.36 38.78C97.4 38.6067 97.46 38.4867 97.54 38.42C97.62 38.3533 97.7267 38.32 97.86 38.32H98.96C99.08 38.32 99.18 38.36 99.26 38.44C99.3533 38.5067 99.3933 38.6 99.38 38.72C99.34 39.5067 99.1067 40.24 98.68 40.92C98.2533 41.6 97.6267 42.1533 96.8 42.58C95.9733 42.9933 94.9667 43.2 93.78 43.2ZM105.96 43.2C104.587 43.2 103.487 42.78 102.66 41.94C101.847 41.0867 101.4 39.9267 101.32 38.46L101.3 37.78L101.32 37.12C101.414 35.68 101.867 34.5333 102.68 33.68C103.507 32.8267 104.594 32.4 105.94 32.4C107.42 32.4 108.567 32.8733 109.38 33.82C110.194 34.7533 110.6 36.02 110.6 37.62V37.96C110.6 38.0933 110.554 38.2067 110.46 38.3C110.38 38.38 110.274 38.42 110.14 38.42H103.22V38.6C103.26 39.4667 103.52 40.2067 104 40.82C104.494 41.42 105.14 41.72 105.94 41.72C106.554 41.72 107.054 41.6 107.44 41.36C107.84 41.1067 108.134 40.8467 108.32 40.58C108.44 40.42 108.527 40.3267 108.58 40.3C108.647 40.26 108.76 40.24 108.92 40.24H109.9C110.02 40.24 110.12 40.2733 110.2 40.34C110.28 40.4067 110.32 40.5 110.32 40.62C110.32 40.9133 110.134 41.2667 109.76 41.68C109.4 42.0933 108.887 42.4533 108.22 42.76C107.567 43.0533 106.814 43.2 105.96 43.2ZM108.7 37.04V36.98C108.7 36.06 108.447 35.3133 107.94 34.74C107.447 34.1533 106.78 33.86 105.94 33.86C105.1 33.86 104.434 34.1533 103.94 34.74C103.46 35.3133 103.22 36.06 103.22 36.98V37.04H108.7ZM113.452 43C113.318 43 113.205 42.96 113.112 42.88C113.032 42.7867 112.992 42.6733 112.992 42.54V33.06C112.992 32.9267 113.032 32.82 113.112 32.74C113.205 32.6467 113.318 32.6 113.452 32.6H114.412C114.545 32.6 114.652 32.6467 114.732 32.74C114.825 32.82 114.872 32.9267 114.872 33.06V36.9H120.312V33.06C120.312 32.9267 120.352 32.82 120.432 32.74C120.525 32.6467 120.638 32.6 120.772 32.6H121.712C121.845 32.6 121.952 32.6467 122.032 32.74C122.125 32.82 122.172 32.9267 122.172 33.06V42.54C122.172 42.6733 122.125 42.7867 122.032 42.88C121.952 42.96 121.845 43 121.712 43H120.772C120.638 43 120.525 42.96 120.432 42.88C120.352 42.7867 120.312 42.6733 120.312 42.54V38.5H114.872V42.54C114.872 42.6733 114.825 42.7867 114.732 42.88C114.652 42.96 114.545 43 114.412 43H113.452ZM124.579 45.2C124.446 45.2 124.333 45.1533 124.239 45.06C124.159 44.98 124.119 44.8733 124.119 44.74V41.86C124.119 41.7267 124.159 41.62 124.239 41.54C124.333 41.4467 124.446 41.4 124.579 41.4H124.679C125.239 41.3867 125.659 40.92 125.939 40C126.233 39.08 126.379 37.62 126.379 35.62V33.06C126.379 32.9267 126.419 32.82 126.499 32.74C126.593 32.6467 126.706 32.6 126.839 32.6H133.219C133.353 32.6 133.459 32.6467 133.539 32.74C133.633 32.82 133.679 32.9267 133.679 33.06V41.36H134.619C134.753 41.36 134.859 41.4067 134.939 41.5C135.033 41.58 135.079 41.6867 135.079 41.82V44.74C135.079 44.8733 135.033 44.98 134.939 45.06C134.859 45.1533 134.753 45.2 134.619 45.2H133.679C133.546 45.2 133.433 45.1533 133.339 45.06C133.259 44.98 133.219 44.8733 133.219 44.74V43H125.979V44.74C125.979 44.8733 125.933 44.98 125.839 45.06C125.759 45.1533 125.653 45.2 125.519 45.2H124.579ZM131.819 41.36V34.2H128.199V35.84C128.199 38.5067 127.819 40.36 127.059 41.4L131.819 41.36ZM137.631 43C137.498 43 137.385 42.96 137.291 42.88C137.211 42.7867 137.171 42.6733 137.171 42.54V33.06C137.171 32.9267 137.211 32.82 137.291 32.74C137.385 32.6467 137.498 32.6 137.631 32.6H141.791C143.018 32.6 143.951 32.8533 144.591 33.36C145.245 33.8533 145.571 34.5333 145.571 35.4C145.571 35.9733 145.465 36.42 145.251 36.74C145.038 37.0467 144.711 37.3133 144.271 37.54C144.751 37.74 145.125 38.0733 145.391 38.54C145.671 39.0067 145.811 39.5067 145.811 40.04C145.811 41 145.471 41.7333 144.791 42.24C144.125 42.7467 143.178 43 141.951 43H137.631ZM141.671 37.02C142.325 37.02 142.838 36.88 143.211 36.6C143.585 36.32 143.771 35.9267 143.771 35.42C143.771 34.9267 143.591 34.58 143.231 34.38C142.871 34.1667 142.351 34.06 141.671 34.06H139.011V37.02H141.671ZM141.791 41.54C142.458 41.54 142.978 41.4133 143.351 41.16C143.738 40.9067 143.931 40.5333 143.931 40.04C143.931 39.5067 143.758 39.12 143.411 38.88C143.065 38.6267 142.525 38.5 141.791 38.5H139.011V41.54H141.791ZM157.222 32.6C157.329 32.6 157.422 32.64 157.502 32.72C157.596 32.8 157.642 32.8933 157.642 33V42.54C157.642 42.6733 157.596 42.7867 157.502 42.88C157.422 42.96 157.316 43 157.182 43H156.242C156.109 43 155.996 42.96 155.902 42.88C155.822 42.7867 155.782 42.6733 155.782 42.54V35.28L150.242 42.7C150.096 42.9 149.922 43 149.722 43H148.822C148.702 43 148.596 42.96 148.502 42.88C148.422 42.7867 148.382 42.6867 148.382 42.58V33.06C148.382 32.9267 148.422 32.82 148.502 32.74C148.596 32.6467 148.709 32.6 148.842 32.6H149.802C149.936 32.6 150.042 32.6467 150.122 32.74C150.216 32.82 150.262 32.9267 150.262 33.06V40.28L155.782 32.9C155.929 32.7 156.102 32.6 156.302 32.6H157.222ZM167.13 43C166.997 43 166.883 42.96 166.79 42.88C166.71 42.7867 166.67 42.6733 166.67 42.54V38.78C165.99 39.42 164.97 39.74 163.61 39.74C162.397 39.74 161.477 39.4733 160.85 38.94C160.223 38.4067 159.91 37.5733 159.91 36.44V33.06C159.91 32.9267 159.95 32.82 160.03 32.74C160.123 32.6467 160.237 32.6 160.37 32.6H161.35C161.483 32.6 161.59 32.6467 161.67 32.74C161.763 32.82 161.81 32.9267 161.81 33.06V36.32C161.81 36.92 161.983 37.36 162.33 37.64C162.677 37.9067 163.223 38.04 163.97 38.04C164.837 38.04 165.503 37.9333 165.97 37.72C166.437 37.5067 166.67 37.1467 166.67 36.64V33.06C166.67 32.9267 166.71 32.82 166.79 32.74C166.883 32.6467 166.997 32.6 167.13 32.6H168.13C168.263 32.6 168.37 32.6467 168.45 32.74C168.543 32.82 168.59 32.9267 168.59 33.06V42.54C168.59 42.6733 168.543 42.7867 168.45 42.88C168.37 42.96 168.263 43 168.13 43H167.13ZM180.406 32.6C180.513 32.6 180.606 32.64 180.686 32.72C180.779 32.8 180.826 32.8933 180.826 33V42.54C180.826 42.6733 180.779 42.7867 180.686 42.88C180.606 42.96 180.499 43 180.366 43H179.426C179.293 43 179.179 42.96 179.086 42.88C179.006 42.7867 178.966 42.6733 178.966 42.54V35.28L173.426 42.7C173.279 42.9 173.106 43 172.906 43H172.006C171.886 43 171.779 42.96 171.686 42.88C171.606 42.7867 171.566 42.6867 171.566 42.58V33.06C171.566 32.9267 171.606 32.82 171.686 32.74C171.779 32.6467 171.893 32.6 172.026 32.6H172.986C173.119 32.6 173.226 32.6467 173.306 32.74C173.399 32.82 173.446 32.9267 173.446 33.06V40.28L178.966 32.9C179.113 32.7 179.286 32.6 179.486 32.6H180.406Z" fill="#363853"/>
<g clip-path="url(#clip0)">
<path d="M74.7999 20.5999H73.3333V19.1332C73.3333 17.9182 72.3482 16.9332 71.1333 16.9332H69.3865L68.3253 14.811C68.0787 14.3124 67.5697 13.9977 67.0134 13.9999H66C65.1899 13.9999 64.5333 14.6565 64.5333 15.4666V16.9333H56.4666C55.2515 16.9333 54.2666 17.9182 54.2666 19.1333V20.5999H52.8C51.585 20.5999 50.6 21.5849 50.6 22.7999V24.2666C50.6 25.0766 51.2566 25.7333 52.0666 25.7333H52.1444L53.0024 33.31L49.4692 32.4799C49.291 32.2057 49.1025 31.9336 48.8928 31.6666L47.6461 26.3008C47.5691 25.969 47.2739 25.734 46.9333 25.7332H42.7196C40.7315 23.9813 38.3819 23.1893 36.6094 23.7107L35.5329 22.5374C35.126 22.0932 34.4869 21.9472 33.9276 22.1707C33.3674 22.3865 32.9984 22.9255 33 23.5259V55.8146C33.0016 57.0208 33.979 57.9983 35.1853 57.9999H71.1333C71.5061 57.9996 71.8193 57.7198 71.8615 57.3494L75.4541 25.7332H75.5333C76.3434 25.7332 77 25.0765 77 24.2665V22.7999C77 21.5849 76.015 20.5999 74.7999 20.5999ZM66 15.4666H67.0134L67.7467 16.9333H66V15.4666ZM55.7333 19.1332C55.7333 18.7282 56.0616 18.3999 56.4666 18.3999H71.1333C71.5383 18.3999 71.8666 18.7282 71.8666 19.1332V20.5999H55.7333V19.1332ZM53.68 34.9732L53.7262 34.982L54.3187 35.1227L54.7162 39.2844C53.5645 38.469 52.1864 38.0346 50.7753 38.0421C51.0469 36.7482 50.9031 35.4017 50.3646 34.1943L53.68 34.9732ZM55.1129 41.4596L55.1224 41.4677C55.388 41.7134 55.6403 41.9734 55.8777 42.2464C56.7502 43.2199 57.3917 44.3778 57.7543 45.6337C57.8783 46.0711 57.9421 46.5233 57.9443 46.9779L51.095 39.5081C52.6184 39.6787 54.0369 40.3677 55.1129 41.4596ZM47.385 32.1397V32.1382C48.9676 33.9569 49.7046 36.1415 49.3548 37.6096L41.8916 29.4733C43.3972 29.1367 45.6866 30.1941 47.385 32.1397ZM46.3466 27.1999L46.9333 29.6969C46.344 29.237 45.7017 28.8495 45.0201 28.5427C44.7429 28.0738 44.4329 27.6251 44.0924 27.1999H46.3466ZM42.6602 27.7455H42.6631C42.724 27.8152 42.7739 27.8922 42.8325 27.9655C42.144 27.9021 41.4509 28.0185 40.821 28.3036L37.8062 25.016C39.2803 25.0373 41.2038 26.0742 42.6602 27.7455ZM63.737 56.1025C63.6235 56.3636 63.3661 56.5328 63.0813 56.5333H56.4666H35.1853C34.7883 56.5333 34.4666 56.2115 34.4666 55.8146L34.4533 23.5333L49.1721 39.5815V39.5852L57.8166 49.0093L57.8262 49.0203L62.568 54.1917C62.5848 54.2137 62.6024 54.2357 62.6215 54.257L63.6049 55.3291C63.7987 55.5377 63.8506 55.8413 63.737 56.1025ZM59.1976 48.3448C59.3318 47.9069 59.4 47.4513 59.4 46.9933C59.7852 47.3182 60.1442 47.673 60.4736 48.0544C60.8832 48.5225 61.2469 49.0289 61.5596 49.5666C61.9879 50.2867 62.2906 51.0742 62.455 51.8957L59.1976 48.3448ZM70.4784 56.5333H65.1361C65.4108 55.7734 65.2366 54.9238 64.6851 54.3333L63.9466 53.5266C64.0915 52.299 63.8935 51.0552 63.3746 49.9333H71.2286L70.4784 56.5333ZM71.3951 48.4666H62.5951C62.2941 47.9836 61.9568 47.5242 61.586 47.0923C60.8643 46.2546 60.0171 45.534 59.0743 44.956C58.6434 43.5974 57.931 42.3447 56.9836 41.2798C56.7636 41.0305 56.5436 40.798 56.3126 40.5743L55.7333 34.4635C55.7035 34.1509 55.4779 33.892 55.1723 33.8197L54.5226 33.6657L54.3686 32.3332H73.2292L71.3951 48.4666ZM73.3956 30.8666H54.2021L53.6213 25.7333H73.9786L73.3956 30.8666ZM75.5333 24.2666H52.0666V22.7999C52.0666 22.3949 52.3949 22.0666 52.8 22.0666H74.7999C75.205 22.0666 75.5333 22.3949 75.5333 22.7999V24.2666Z" fill="#363853"/>
<path d="M64.1006 46.2667C64.1423 46.2667 64.1834 46.2608 64.2245 46.2594C64.2355 46.2594 64.2465 46.2667 64.2575 46.2667C64.2943 46.2644 64.3308 46.2593 64.3667 46.2513C65.5147 46.1738 66.5724 45.6017 67.2655 44.6834C68.1895 43.3853 68.4536 41.7299 67.9798 40.2087C67.8778 39.8288 67.7847 39.4563 67.6945 39.0962C67.1225 36.8031 66.5762 34.6404 64.2596 34.543C64.2362 34.543 64.2142 34.5386 64.1907 34.5386C64.1672 34.5386 64.1328 34.5334 64.1005 34.5334C61.5089 34.5334 59.3998 37.1654 59.3998 40.4001C59.3998 43.6349 61.5089 46.2667 64.1006 46.2667ZM64.6682 36.11C65.4264 36.4077 65.7601 37.4014 66.2719 39.451C66.3636 39.8177 66.4589 40.202 66.5652 40.5914C66.9163 41.6723 66.7448 42.8549 66.101 43.7916C65.8673 44.0981 65.5682 44.3486 65.2254 44.5249C65.2006 43.2643 64.9524 42.0181 64.4921 40.8443C64.4188 40.6155 64.3454 40.3947 64.2809 40.1843C63.8542 38.7962 64.3542 36.9973 64.6682 36.11ZM63.0922 36.22C62.615 37.6363 62.5416 39.1577 62.8802 40.6134C62.9477 40.8334 63.0225 41.0614 63.1002 41.2983C63.4669 42.4174 63.9069 43.7704 63.7272 44.7662C62.1198 44.5154 60.8665 42.6542 60.8665 40.4C60.8666 38.453 61.8016 36.8 63.0922 36.22Z" fill="#363853"/>
<path d="M36.8814 52.563L36.3629 53.0815C36.1723 53.2657 36.0958 53.5383 36.163 53.7947C36.2301 54.0511 36.4303 54.2514 36.6867 54.3184C36.9431 54.3855 37.2157 54.309 37.3999 54.1184L37.9183 53.6C38.1962 53.3122 38.1923 52.8548 37.9094 52.572C37.6266 52.2891 37.1691 52.2851 36.8814 52.563Z" fill="#363853"/>
<path d="M43.8929 47.6264C44.1794 47.3399 44.1794 46.8753 43.8929 46.5887C43.6064 46.3021 43.1418 46.3021 42.8552 46.5887L42.3367 47.1071C42.1514 47.2923 42.0789 47.5624 42.1466 47.8155C42.2143 48.0687 42.412 48.2664 42.6651 48.3343C42.9182 48.4022 43.1883 48.3299 43.3736 48.1447L43.8929 47.6264Z" fill="#363853"/>
<path d="M37.3999 45.7482L36.8815 46.2667C36.6909 46.4509 36.6144 46.7234 36.6815 46.9799C36.7486 47.2362 36.9489 47.4365 37.2052 47.5036C37.4616 47.5707 37.7342 47.4942 37.9184 47.3036L38.4369 46.7851C38.7148 46.4974 38.7108 46.04 38.4279 45.7572C38.1451 45.4743 37.6877 45.4703 37.3999 45.7482Z" fill="#363853"/>
<path d="M37.3999 40.6149L36.8815 41.1333C36.6909 41.3175 36.6144 41.5901 36.6815 41.8465C36.7486 42.1029 36.9489 42.3031 37.2052 42.3702C37.4616 42.4373 37.7342 42.3609 37.9184 42.1702L38.4369 41.6518C38.7148 41.3641 38.7108 40.9066 38.4279 40.6238C38.1451 40.341 37.6877 40.337 37.3999 40.6149Z" fill="#363853"/>
<path d="M44 52.563L43.4815 53.0815C43.2909 53.2657 43.2144 53.5383 43.2816 53.7947C43.3487 54.0511 43.5489 54.2514 43.8053 54.3184C44.0617 54.3855 44.3343 54.309 44.5185 54.1184L45.0369 53.6C45.3148 53.3122 45.3109 52.8548 45.028 52.572C44.7452 52.2891 44.2877 52.2851 44 52.563Z" fill="#363853"/>
<path d="M49.3481 52.5631L48.8297 53.0816C48.6391 53.2658 48.5626 53.5384 48.6297 53.7948C48.6968 54.0512 48.897 54.2515 49.1534 54.3185C49.4098 54.3856 49.6824 54.3091 49.8666 54.1185L50.385 53.6001C50.663 53.3123 50.659 52.8549 50.3761 52.5721C50.0932 52.2893 49.6358 52.2852 49.3481 52.5631Z" fill="#363853"/>
<g clip-path="url(#clip1)">
<path d="M48.1315 27.5667H50.2563C50.8077 27.5667 51.2562 28.0152 51.2562 28.5666V30.0315C51.2562 30.3875 51.5448 30.676 51.9007 30.676C52.2567 30.676 52.5452 30.3875 52.5452 30.0315V28.5666C52.5452 27.3044 51.5184 26.2777 50.2563 26.2777H48.1315C47.5894 26.2777 47.1484 25.8366 47.1484 25.2945C47.1484 24.7524 47.5894 24.3115 48.1315 24.3115H52.843C54.0959 24.3115 55.1151 23.2922 55.1151 22.0393C55.1151 20.7864 54.0958 19.7672 52.843 19.7672H49.0738C48.7178 19.7672 48.4293 20.0558 48.4293 20.4117C48.4293 20.7677 48.7178 21.0563 49.0738 21.0563H52.843C53.3851 21.0563 53.8261 21.4973 53.8261 22.0393C53.8261 22.5814 53.385 23.0224 52.843 23.0224H48.1315C46.8786 23.0224 45.8593 24.0417 45.8593 25.2945C45.8593 26.5474 46.8786 27.5667 48.1315 27.5667Z" fill="#363853"/>
<path d="M40.3886 31.8924H42.4971C43.0415 31.8924 43.4844 32.3354 43.4844 32.8798V34.3335C43.4844 34.6895 43.773 34.978 44.1289 34.978C44.4849 34.978 44.7734 34.6895 44.7734 34.3335V32.8798C44.7734 31.6246 43.7522 30.6034 42.4971 30.6034H40.3886C39.8533 30.6034 39.418 30.1679 39.418 29.6328C39.418 29.0977 39.8534 28.6622 40.3886 28.6622H42.8539C43.2098 28.6622 43.4984 28.3737 43.4984 28.0177C43.4984 27.6617 43.2098 27.3732 42.8539 27.3732H40.3886C39.1426 27.3732 38.1289 28.3868 38.1289 29.6328C38.1289 30.8788 39.1426 31.8924 40.3886 31.8924Z" fill="#363853"/>
<path d="M58.6523 40.8125C59.0083 40.8125 59.2969 40.5239 59.2969 40.168C59.2969 39.812 59.0083 39.5234 58.6523 39.5234C58.2964 39.5234 58.0078 39.812 58.0078 40.168C58.0078 40.5239 58.2964 40.8125 58.6523 40.8125Z" fill="#363853"/>
<path d="M61.832 42.2734C62.188 42.2734 62.4766 41.9849 62.4766 41.6289C62.4766 41.2729 62.188 40.9844 61.832 40.9844C61.4761 40.9844 61.1875 41.2729 61.1875 41.6289C61.1875 41.9849 61.4761 42.2734 61.832 42.2734Z" fill="#363853"/>
<path d="M63.7227 44.5078C64.0786 44.5078 64.3672 44.2192 64.3672 43.8633C64.3672 43.5073 64.0786 43.2188 63.7227 43.2188C63.3667 43.2188 63.0781 43.5073 63.0781 43.8633C63.0781 44.2192 63.3667 44.5078 63.7227 44.5078Z" fill="#363853"/>
<path d="M61.0586 39.2656C61.4146 39.2656 61.7031 38.9771 61.7031 38.6211C61.7031 38.2651 61.4146 37.9766 61.0586 37.9766C60.7026 37.9766 60.4141 38.2651 60.4141 38.6211C60.4141 38.9771 60.7026 39.2656 61.0586 39.2656Z" fill="#363853"/>
<path d="M58.9102 44.9375C59.2661 44.9375 59.5547 44.6489 59.5547 44.293C59.5547 43.937 59.2661 43.6484 58.9102 43.6484C58.5542 43.6484 58.2656 43.937 58.2656 44.293C58.2656 44.6489 58.5542 44.9375 58.9102 44.9375Z" fill="#363853"/>
<path d="M75.9114 36.8109H74.083L74.9867 34.9433C76.1331 34.715 77 33.7014 77 32.4889C77 31.2453 76.0882 30.2111 74.8981 30.0186C73.5827 27.6495 71.0131 25.8701 67.8968 25.1599V25.1107C67.8968 24.7548 67.6083 24.4662 67.2523 24.4662C66.9573 24.4662 66.7091 24.6646 66.6326 24.9351C66.2401 24.8845 65.8407 24.8517 65.4363 24.8349C65.333 24.6172 65.1116 24.4662 64.8545 24.4662C64.5973 24.4662 64.376 24.6172 64.2726 24.8349C63.8681 24.8517 63.4687 24.8845 63.0762 24.9352C62.9998 24.6647 62.7516 24.4662 62.4565 24.4662C62.1005 24.4662 61.812 24.7548 61.812 25.1107V25.1599C58.6958 25.8701 56.1261 27.6496 54.8108 30.0186C53.6207 30.2111 52.709 31.2453 52.709 32.4889C52.709 32.5615 52.7123 32.6333 52.7184 32.7043C49.7427 32.981 47.0692 34.2242 45.0633 36.0896H41.0136C40.7376 36.0896 40.4904 36.2134 40.3232 36.408H38.4304C38.1203 35.6246 37.3507 35.071 36.4734 35.071C35.3134 35.071 34.3698 36.0146 34.3698 37.1746C34.3698 37.2737 34.3776 37.3717 34.3912 37.4683C33.5809 37.7608 33 38.5375 33 39.4474C33 39.8514 33.1147 40.2398 33.3254 40.5722C33.1147 40.9047 33 41.293 33 41.697C33 42.857 33.9437 43.8007 35.1037 43.8007C35.9809 43.8007 36.7506 43.2471 37.0606 42.4636H38.7654C38.8436 42.7509 39.0592 42.988 39.3509 43.087L41.3718 43.7733C41.3597 43.9815 41.3532 44.1911 41.3532 44.4021C41.3532 44.6009 41.3589 44.7988 41.3695 44.9961C41.0535 45.0723 40.7585 45.2031 40.4961 45.3792C40.064 45.0894 39.5449 44.9197 38.9867 44.9197C37.4879 44.9197 36.2686 46.139 36.2686 47.6378C36.2686 47.6607 36.2704 47.6833 36.271 47.7061H35.5169C35.0913 47.7061 34.7141 47.9452 34.5324 48.3299C34.3508 48.7147 34.4059 49.1578 34.6763 49.4864L36.6098 51.8359C36.8174 52.088 37.1237 52.2327 37.4504 52.2327H64.7103C65.0663 52.2327 65.3548 51.9441 65.3548 51.5882C65.3548 51.2322 65.0663 50.9436 64.7103 50.9436H37.545L35.9415 48.9952H75.4853L73.8818 50.9436H67.7181C67.362 50.9436 67.0735 51.2322 67.0735 51.5882C67.0735 51.9441 67.362 52.2327 67.7181 52.2327H73.9764C74.3031 52.2327 74.6095 52.088 74.8169 51.8358L76.7504 49.4865C77.0207 49.1578 77.0759 48.7147 76.8942 48.3299C76.7126 47.9451 76.3354 47.7061 75.9099 47.7061H75.2716C75.905 46.61 76.143 45.311 75.9119 44.0346C75.8639 43.7702 75.657 43.5631 75.3925 43.5153C73.6466 43.1992 71.857 43.758 70.6048 45.0101C70.5283 45.0865 70.4554 45.1658 70.3842 45.2462C70.0148 45.0462 69.594 44.9301 69.1474 44.9214V43.695H69.835C70.925 43.695 71.8117 42.8083 71.8117 41.7183V40.8531H75.9114C76.5116 40.8531 77 40.3647 77 39.7645V37.8995C77 37.2992 76.5116 36.8109 75.9114 36.8109ZM39.2905 47.7062H37.56C37.5589 47.6835 37.5577 47.6608 37.5577 47.6379C37.5577 46.8499 38.1987 46.2089 38.9867 46.2089C39.2108 46.2089 39.4225 46.2614 39.6113 46.354C39.4054 46.7365 39.2881 47.1737 39.2881 47.6379C39.2882 47.6608 39.2899 47.6833 39.2905 47.7062ZM71.5163 45.9216C72.3595 45.0786 73.5223 44.6483 74.7005 44.7267C74.7727 45.812 74.412 46.8847 73.6953 47.7062H72.6325L73.5131 46.8256C73.7648 46.5739 73.7648 46.1658 73.5131 45.9141C73.2613 45.6624 72.8533 45.6624 72.6015 45.9141L71.6882 46.8275C71.6075 46.5698 71.4893 46.3286 71.3402 46.1101C71.3969 46.0456 71.4553 45.9826 71.5163 45.9216ZM58.5032 27.9422C59.4787 27.2886 60.6054 26.7984 61.812 26.4901V27.1534C61.812 27.5093 62.1005 27.7979 62.4565 27.7979C62.8126 27.7979 63.1011 27.5093 63.1011 27.1534V26.2345C63.4665 26.1825 63.8368 26.1482 64.2099 26.129V27.1534C64.2099 27.5093 64.4984 27.7979 64.8545 27.7979C65.2105 27.7979 65.499 27.5093 65.499 27.1534V26.129C65.8721 26.1482 66.2424 26.1826 66.6077 26.2345V27.1534C66.6077 27.5093 66.8962 27.7979 67.2523 27.7979C67.6083 27.7979 67.8968 27.5093 67.8968 27.1534V26.4901C69.1035 26.7984 70.2302 27.2886 71.2057 27.9423C72.1561 28.579 72.9304 29.3479 73.4945 30.1982C73.2768 30.294 73.0729 30.42 72.89 30.5732C72.4452 30.2005 71.8773 29.9861 71.2829 29.9861C70.6885 29.9861 70.1205 30.2005 69.6758 30.5732C69.231 30.2005 68.663 29.9861 68.0687 29.9861C67.4743 29.9861 66.9063 30.2005 66.4616 30.5732C66.0168 30.2005 65.4488 29.9861 64.8545 29.9861C64.26 29.9861 63.6921 30.2005 63.2473 30.5732C62.8025 30.2005 62.2346 29.9861 61.6402 29.9861C61.0458 29.9861 60.4778 30.2005 60.0331 30.5732C59.5884 30.2005 59.0204 29.9861 58.426 29.9861C57.8316 29.9861 57.2637 30.2005 56.8189 30.5732C56.6361 30.42 56.4321 30.294 56.2144 30.1982C56.7785 29.3478 57.5528 28.5789 58.5032 27.9422ZM55.2117 31.2751C55.642 31.2751 56.0441 31.5077 56.2612 31.8822C56.3765 32.0809 56.5889 32.2034 56.8188 32.2034C57.0486 32.2034 57.261 32.081 57.3763 31.8823C57.5935 31.5077 57.9957 31.2751 58.4259 31.2751C58.8562 31.2751 59.2584 31.5077 59.4755 31.8822C59.5908 32.0809 59.8031 32.2034 60.033 32.2034C60.2629 32.2034 60.4752 32.081 60.5906 31.8822C60.8077 31.5077 61.2098 31.2751 61.6401 31.2751C62.0703 31.2751 62.4725 31.5077 62.6898 31.8823C62.8051 32.081 63.0175 32.2034 63.2472 32.2034C63.4771 32.2034 63.6895 32.081 63.8048 31.8822C64.0219 31.5077 64.4241 31.2751 64.8544 31.2751C65.2846 31.2751 65.6868 31.5077 65.904 31.8823C66.0192 32.081 66.2317 32.2034 66.4615 32.2034C66.6914 32.2034 66.9037 32.081 67.019 31.8822C67.2361 31.5077 67.6383 31.2751 68.0686 31.2751C68.4988 31.2751 68.901 31.5077 69.1182 31.8823C69.2336 32.081 69.4459 32.2034 69.6757 32.2034C69.9056 32.2034 70.118 32.081 70.2333 31.8822C70.4504 31.5077 70.8525 31.2751 71.2828 31.2751C71.713 31.2751 72.1152 31.5077 72.3325 31.8823C72.4477 32.081 72.6602 32.2034 72.89 32.2034C73.1198 32.2034 73.3322 32.081 73.4475 31.8822C73.6646 31.5077 74.0668 31.2751 74.4971 31.2751C75.1663 31.2751 75.7108 31.8195 75.7108 32.4888C75.7108 33.1581 75.1663 33.7025 74.4971 33.7025C74.0668 33.7025 73.6646 33.4699 73.4475 33.0954C73.3322 32.8967 73.1198 32.7742 72.89 32.7742C72.6602 32.7742 72.4477 32.8966 72.3325 33.0953C72.1152 33.4699 71.713 33.7025 71.2828 33.7025C70.8525 33.7025 70.4504 33.4699 70.2333 33.0954C70.118 32.8967 69.9056 32.7742 69.6757 32.7742C69.4459 32.7742 69.2335 32.8966 69.1182 33.0953C68.901 33.4699 68.4988 33.7025 68.0686 33.7025C67.6383 33.7025 67.2361 33.4699 67.019 33.0954C66.9037 32.8967 66.6914 32.7742 66.4615 32.7742C66.2317 32.7742 66.0192 32.8966 65.904 33.0953C65.6868 33.4699 65.2846 33.7025 64.8544 33.7025C64.4241 33.7025 64.0219 33.4699 63.8048 33.0954C63.6895 32.8967 63.4771 32.7742 63.2472 32.7742C63.0175 32.7742 62.805 32.8966 62.6898 33.0953C62.4725 33.4699 62.0703 33.7025 61.6401 33.7025C61.2098 33.7025 60.8077 33.4699 60.5906 33.0954C60.4752 32.8967 60.2629 32.7742 60.033 32.7742C59.8031 32.7742 59.5908 32.8966 59.4755 33.0954C59.3486 33.3142 59.1583 33.4841 58.9363 33.5879C57.4222 32.9847 55.7569 32.6492 54.0094 32.6458C54.0026 32.5943 53.998 32.5422 53.998 32.4888C53.998 31.8195 54.5424 31.2751 55.2117 31.2751ZM41.3916 37.3786H43.8635C43.6095 37.6949 43.3712 38.0227 43.1518 38.3624H41.3916V37.3786ZM38.7328 41.1746H36.5567C36.2215 41.1746 35.9422 41.4316 35.9144 41.7657C35.8797 42.184 35.5236 42.5116 35.1037 42.5116C34.6546 42.5116 34.2891 42.1462 34.2891 41.697C34.2891 41.4535 34.397 41.2244 34.5851 41.0688C34.7331 40.9463 34.8188 40.7643 34.8188 40.5722C34.8188 40.38 34.7331 40.198 34.5851 40.0755C34.397 39.9199 34.2891 39.691 34.2891 39.4473C34.2891 38.9981 34.6546 38.6327 35.1037 38.6327C35.5236 38.6327 35.8797 38.9603 35.9144 39.3786C35.9422 39.7127 36.2215 39.9697 36.5567 39.9697H38.7329V41.1746H38.7328ZM38.9533 38.6808H37.0606C36.8236 38.082 36.3178 37.6184 35.7009 37.4327C35.6734 37.3505 35.6587 37.2635 35.6587 37.1745C35.6587 36.7253 36.0241 36.3599 36.4733 36.3599C36.8931 36.3599 37.2493 36.6876 37.2841 37.1058C37.3118 37.4399 37.5911 37.697 37.9264 37.697H40.1026V38.3624H39.6438C39.3678 38.3624 39.1206 38.4863 38.9533 38.6808ZM43.433 47.7062H40.5796C40.5785 47.6835 40.5773 47.6608 40.5773 47.6379C40.5773 46.8499 41.2183 46.2089 42.0063 46.2089C42.7942 46.2089 43.4352 46.8499 43.4352 47.6379C43.4353 47.6608 43.434 47.6835 43.433 47.7062ZM63.3116 47.7062H61.0679C61.0668 47.6835 61.0656 47.6608 61.0656 47.6379C61.0656 46.8499 61.7066 46.2089 62.4946 46.2089C62.8885 46.2089 63.2459 46.3692 63.5046 46.6279C63.3791 46.9404 63.3093 47.281 63.3093 47.6379C63.3092 47.6608 63.311 47.6833 63.3116 47.7062ZM62.4946 44.9197C60.9959 44.9197 59.7765 46.139 59.7765 47.6378C59.7765 47.6607 59.7782 47.6833 59.7788 47.7061H44.722C44.7226 47.6832 44.7244 47.6607 44.7244 47.6378C44.7244 46.3649 43.8446 45.294 42.6614 45C42.6491 44.8017 42.6423 44.6024 42.6423 44.4021C42.6423 44.3364 42.6432 44.2709 42.6445 44.2054L49.2366 46.4439C49.6807 46.5948 50.1349 46.6691 50.5847 46.6691C51.4345 46.6691 52.2687 46.4037 52.9891 45.8877C54.0906 45.0983 54.7223 43.8685 54.7223 42.5133C54.7223 42.0288 54.6392 41.5535 54.4753 41.1005C54.3541 40.7658 53.9846 40.5927 53.6498 40.7139C53.3151 40.835 53.142 41.2046 53.2632 41.5393C53.3761 41.8512 53.4334 42.1789 53.4334 42.5132C53.4334 43.4475 52.9978 44.2955 52.2383 44.8396C51.479 45.3838 50.5359 45.5235 49.6512 45.2232L40.022 41.9534V39.6514H50.5715C50.8948 39.6514 51.2133 39.7056 51.5182 39.8125C51.8543 39.9304 52.222 39.7534 52.3397 39.4173C52.4575 39.0813 52.2805 38.7137 51.9446 38.5959C51.5023 38.4409 51.0403 38.3623 50.5715 38.3623H44.7273C46.7835 35.6855 50.1654 33.9344 53.9831 33.9344C60.2364 33.9344 65.3238 38.6302 65.3238 44.4021C65.3238 44.6083 65.3166 44.8135 65.3036 45.0178C64.9142 45.1257 64.5596 45.3183 64.2609 45.5745C63.7855 45.1668 63.1685 44.9197 62.4946 44.9197ZM67.454 47.7062H64.6006C64.5995 47.6835 64.5983 47.6608 64.5983 47.6379C64.5983 46.8499 65.2393 46.2089 66.0272 46.2089C66.8152 46.2089 67.4563 46.8499 67.4563 47.6379C67.4563 47.6608 67.4551 47.6835 67.454 47.7062ZM67.8583 45.2197C67.7555 45.2725 67.6558 45.3304 67.5611 45.3954C67.2745 45.1988 66.9482 45.0568 66.5974 44.9815C66.6073 44.7892 66.6128 44.5961 66.6128 44.4022C66.6128 44.1646 66.6029 43.9292 66.5878 43.695H67.8583V45.2197ZM70.5226 47.6378C70.5226 47.6607 70.5214 47.6834 70.5203 47.7061H68.743C68.7436 47.6832 68.7454 47.6607 68.7454 47.6378C68.7454 47.181 68.6316 46.7505 68.4317 46.3723C68.6296 46.2679 68.8547 46.2088 69.0937 46.2088C69.8816 46.2088 70.5226 46.8498 70.5226 47.6378ZM70.5226 41.7184C70.5226 42.0976 70.2142 42.406 69.835 42.406H66.4281C66.33 41.8757 66.1959 41.3568 66.0241 40.8531H70.5226V41.7184ZM75.7109 39.564H65.4932C65.2456 39.0557 64.9601 38.5668 64.6404 38.0999H67.375C67.731 38.0999 68.0195 37.8113 68.0195 37.4554C68.0195 37.0994 67.731 36.8109 67.375 36.8109H63.6187C63.0022 36.1339 62.3059 35.5221 61.5421 34.9893C61.5747 34.9906 61.6074 34.9916 61.6401 34.9916C62.2345 34.9916 62.8024 34.7771 63.2472 34.4044C63.692 34.7771 64.26 34.9916 64.8544 34.9916C65.4487 34.9916 66.0167 34.7771 66.4615 34.4044C66.9062 34.7771 67.4743 34.9916 68.0686 34.9916C68.6629 34.9916 69.2309 34.7771 69.6757 34.4044C70.1204 34.7771 70.6885 34.9916 71.2828 34.9916C71.8772 34.9916 72.4451 34.7771 72.89 34.4044C73.105 34.5846 73.3489 34.7274 73.6106 34.8272L72.6508 36.8109H70.3828C70.0268 36.8109 69.7383 37.0994 69.7383 37.4554C69.7383 37.8113 70.0268 38.0999 70.3828 38.0999H75.7109V39.564Z" fill="#363853"/>
</g>
</g>
<defs>
<filter id="filter0_d" x="0" y="0" width="216" height="72" filterUnits="userSpaceOnUse" color-interpolation-filters="sRGB">
<feFlood flood-opacity="0" result="BackgroundImageFix"/>
<feColorMatrix in="SourceAlpha" type="matrix" values="0 0 0 0 0 0 0 0 0 0 0 0 0 0 0 0 0 0 127 0" result="hardAlpha"/>
<feMorphology radius="1" operator="dilate" in="SourceAlpha" result="effect1_dropShadow"/>
<feOffset/>
<feComposite in2="hardAlpha" operator="out"/>
<feColorMatrix type="matrix" values="0 0 0 0 0.925 0 0 0 0 0.925 0 0 0 0 0.925 0 0 0 1 0"/>
<feBlend mode="normal" in2="BackgroundImageFix" result="effect1_dropShadow"/>
<feBlend mode="normal" in="SourceGraphic" in2="effect1_dropShadow" result="shape"/>
</filter>
<clipPath id="clip0">
<rect width="44" height="44" fill="white" transform="translate(33 14)"/>
</clipPath>
<clipPath id="clip1">
<rect width="44" height="44" fill="white" transform="translate(33 14)"/>
</clipPath>
</defs>
</svg>
